# xmcd
#
# Track frame offsets: 
#        150
#        14921
#        31643
#        50348
#        65887
#        82004
#        102018
#        119356
#        133132
#        146175
#
# Disc length: 2265 seconds
#
# Revision: 0
# Processed by: cddbd v1.5.1PL0 Copyright (c) Steve Scherf et al.
# Submitted via: ExactAudioCopy v0.95a5
#
DISCID=9208d70a
DTITLE=Gretchen Wilson - Here For The Party
DYEAR=2004
DGENRE=Country
TTITLE0=Here For The Party
TTITLE1=Redneck Woman
TTITLE2=When I Think About Cheatin'
TTITLE3=Homewrecker
TTITLE4=Holding You
TTITLE5=Chariot
TTITLE6=What Happened
TTITLE7=When It Rains
TTITLE8=The Bed
TTITLE9=Pocahontas Proud
EXTD=
EXTT0=
EXTT1=
EXTT2=
EXTT3=
EXTT4=
EXTT5=
EXTT6=
EXTT7=
EXTT8=
EXTT9=
PLAYORDER=
